# xmcd
#
# Track frame offsets:
#	150
#	24602
#	45035
#	67870
#	88816
#	120331
#	147584
#	172808
#	199845
#	228573
#	303273
#
# Disc length: 4307 seconds
#
# Revision: 2
# Processed by: cddbd v1.5.1PL2 Copyright (c) Steve Scherf et al.
# Submitted via: EasyCDDAExtractor 8.0.2.1
#
DISCID=8610d10b
DTITLE=Saxon - Le Bikini Toulouse 18-05-00 Disc 1
DYEAR=2000
DGENRE=Hard Rock
TTITLE0=Metal Head
TTITLE1=Motorcycle Man
TTITLE2=Dogs Of War
TTITLE3=Song Of Evil
TTITLE4=Power and Glory
TTITLE5=Unleash The Beast
TTITLE6=Are We Travellers In time
TTITLE7=Denim and Leather
TTITLE8=The Thin Red Line
TTITLE9=Conquistador
TTITLE10=Drum Solo
EXTD=
EXTT0=
EXTT1=
EXTT2=
EXTT3=
EXTT4=
EXTT5=
EXTT6=
EXTT7=
EXTT8=
EXTT9=
EXTT10=
PLAYORDER=
